<mxfile host="app.diagrams.net" agent="Mozilla/5.0 (Windows NT 10.0; Win64; x64) AppleWebKit/537.36 (KHTML, like Gecko) Chrome/135.0.0.0 Safari/537.36 Edg/135.0.0.0" version="26.2.9">
  <diagram name="Страница — 1" id="0r7f8GaHTG85bw_CygiR">
    <mxGraphModel dx="1420" dy="794" grid="1" gridSize="10" guides="1" tooltips="1" connect="1" arrows="1" fold="1" page="1" pageScale="1" pageWidth="827" pageHeight="1169" math="0" shadow="0">
      <root>
        <mxCell id="0" />
        <mxCell id="1" parent="0" />
        <mxCell id="lSfo4M3xzaESeiaQ9F7--1" value="prototip" style="swimlane;fontStyle=1;align=center;verticalAlign=top;childLayout=stackLayout;horizontal=1;startSize=26;horizontalStack=0;resizeParent=1;resizeParentMax=0;resizeLast=0;collapsible=1;marginBottom=0;whiteSpace=wrap;html=1;" vertex="1" parent="1">
          <mxGeometry x="360" y="240" width="160" height="60" as="geometry" />
        </mxCell>
        <mxCell id="lSfo4M3xzaESeiaQ9F7--3" value="" style="line;strokeWidth=1;fillColor=none;align=left;verticalAlign=middle;spacingTop=-1;spacingLeft=3;spacingRight=3;rotatable=0;labelPosition=right;points=[];portConstraint=eastwest;strokeColor=inherit;" vertex="1" parent="lSfo4M3xzaESeiaQ9F7--1">
          <mxGeometry y="26" width="160" height="8" as="geometry" />
        </mxCell>
        <mxCell id="lSfo4M3xzaESeiaQ9F7--4" value="+ clone(клон):" style="text;strokeColor=none;fillColor=none;align=left;verticalAlign=top;spacingLeft=4;spacingRight=4;overflow=hidden;rotatable=0;points=[[0,0.5],[1,0.5]];portConstraint=eastwest;whiteSpace=wrap;html=1;" vertex="1" parent="lSfo4M3xzaESeiaQ9F7--1">
          <mxGeometry y="34" width="160" height="26" as="geometry" />
        </mxCell>
        <mxCell id="lSfo4M3xzaESeiaQ9F7--5" value="&lt;span style=&quot;text-align: left;&quot;&gt;concretePrototipA&lt;/span&gt;" style="swimlane;fontStyle=1;align=center;verticalAlign=top;childLayout=stackLayout;horizontal=1;startSize=26;horizontalStack=0;resizeParent=1;resizeParentMax=0;resizeLast=0;collapsible=1;marginBottom=0;whiteSpace=wrap;html=1;" vertex="1" parent="1">
          <mxGeometry x="190" y="516" width="160" height="138" as="geometry" />
        </mxCell>
        <mxCell id="lSfo4M3xzaESeiaQ9F7--6" value="&amp;nbsp;fieldA: typeA" style="text;strokeColor=none;fillColor=none;align=left;verticalAlign=top;spacingLeft=4;spacingRight=4;overflow=hidden;rotatable=0;points=[[0,0.5],[1,0.5]];portConstraint=eastwest;whiteSpace=wrap;html=1;" vertex="1" parent="lSfo4M3xzaESeiaQ9F7--5">
          <mxGeometry y="26" width="160" height="26" as="geometry" />
        </mxCell>
        <mxCell id="lSfo4M3xzaESeiaQ9F7--7" value="" style="line;strokeWidth=1;fillColor=none;align=left;verticalAlign=middle;spacingTop=-1;spacingLeft=3;spacingRight=3;rotatable=0;labelPosition=right;points=[];portConstraint=eastwest;strokeColor=inherit;" vertex="1" parent="lSfo4M3xzaESeiaQ9F7--5">
          <mxGeometry y="52" width="160" height="8" as="geometry" />
        </mxCell>
        <mxCell id="lSfo4M3xzaESeiaQ9F7--8" value="+ clone(клон):" style="text;strokeColor=none;fillColor=none;align=left;verticalAlign=top;spacingLeft=4;spacingRight=4;overflow=hidden;rotatable=0;points=[[0,0.5],[1,0.5]];portConstraint=eastwest;whiteSpace=wrap;html=1;" vertex="1" parent="lSfo4M3xzaESeiaQ9F7--5">
          <mxGeometry y="60" width="160" height="26" as="geometry" />
        </mxCell>
        <mxCell id="lSfo4M3xzaESeiaQ9F7--20" value="+ getFieldA():" style="text;strokeColor=none;fillColor=none;align=left;verticalAlign=top;spacingLeft=4;spacingRight=4;overflow=hidden;rotatable=0;points=[[0,0.5],[1,0.5]];portConstraint=eastwest;whiteSpace=wrap;html=1;" vertex="1" parent="lSfo4M3xzaESeiaQ9F7--5">
          <mxGeometry y="86" width="160" height="26" as="geometry" />
        </mxCell>
        <mxCell id="lSfo4M3xzaESeiaQ9F7--19" value="+ setFieldA():" style="text;strokeColor=none;fillColor=none;align=left;verticalAlign=top;spacingLeft=4;spacingRight=4;overflow=hidden;rotatable=0;points=[[0,0.5],[1,0.5]];portConstraint=eastwest;whiteSpace=wrap;html=1;" vertex="1" parent="lSfo4M3xzaESeiaQ9F7--5">
          <mxGeometry y="112" width="160" height="26" as="geometry" />
        </mxCell>
        <mxCell id="lSfo4M3xzaESeiaQ9F7--9" value="&lt;span style=&quot;text-align: left;&quot;&gt;cocretePrototipB&lt;/span&gt;" style="swimlane;fontStyle=1;align=center;verticalAlign=top;childLayout=stackLayout;horizontal=1;startSize=26;horizontalStack=0;resizeParent=1;resizeParentMax=0;resizeLast=0;collapsible=1;marginBottom=0;whiteSpace=wrap;html=1;" vertex="1" parent="1">
          <mxGeometry x="500" y="520" width="160" height="138" as="geometry" />
        </mxCell>
        <mxCell id="lSfo4M3xzaESeiaQ9F7--10" value="- fieldB: type" style="text;strokeColor=none;fillColor=none;align=left;verticalAlign=top;spacingLeft=4;spacingRight=4;overflow=hidden;rotatable=0;points=[[0,0.5],[1,0.5]];portConstraint=eastwest;whiteSpace=wrap;html=1;" vertex="1" parent="lSfo4M3xzaESeiaQ9F7--9">
          <mxGeometry y="26" width="160" height="26" as="geometry" />
        </mxCell>
        <mxCell id="lSfo4M3xzaESeiaQ9F7--11" value="" style="line;strokeWidth=1;fillColor=none;align=left;verticalAlign=middle;spacingTop=-1;spacingLeft=3;spacingRight=3;rotatable=0;labelPosition=right;points=[];portConstraint=eastwest;strokeColor=inherit;" vertex="1" parent="lSfo4M3xzaESeiaQ9F7--9">
          <mxGeometry y="52" width="160" height="8" as="geometry" />
        </mxCell>
        <mxCell id="lSfo4M3xzaESeiaQ9F7--12" value="+ clone(клон):" style="text;strokeColor=none;fillColor=none;align=left;verticalAlign=top;spacingLeft=4;spacingRight=4;overflow=hidden;rotatable=0;points=[[0,0.5],[1,0.5]];portConstraint=eastwest;whiteSpace=wrap;html=1;" vertex="1" parent="lSfo4M3xzaESeiaQ9F7--9">
          <mxGeometry y="60" width="160" height="26" as="geometry" />
        </mxCell>
        <mxCell id="lSfo4M3xzaESeiaQ9F7--22" value="+ getFieldB():" style="text;strokeColor=none;fillColor=none;align=left;verticalAlign=top;spacingLeft=4;spacingRight=4;overflow=hidden;rotatable=0;points=[[0,0.5],[1,0.5]];portConstraint=eastwest;whiteSpace=wrap;html=1;" vertex="1" parent="lSfo4M3xzaESeiaQ9F7--9">
          <mxGeometry y="86" width="160" height="26" as="geometry" />
        </mxCell>
        <mxCell id="lSfo4M3xzaESeiaQ9F7--21" value="+ setFieldB():" style="text;strokeColor=none;fillColor=none;align=left;verticalAlign=top;spacingLeft=4;spacingRight=4;overflow=hidden;rotatable=0;points=[[0,0.5],[1,0.5]];portConstraint=eastwest;whiteSpace=wrap;html=1;" vertex="1" parent="lSfo4M3xzaESeiaQ9F7--9">
          <mxGeometry y="112" width="160" height="26" as="geometry" />
        </mxCell>
        <mxCell id="lSfo4M3xzaESeiaQ9F7--13" value="client" style="swimlane;fontStyle=1;align=center;verticalAlign=top;childLayout=stackLayout;horizontal=1;startSize=26;horizontalStack=0;resizeParent=1;resizeParentMax=0;resizeLast=0;collapsible=1;marginBottom=0;whiteSpace=wrap;html=1;" vertex="1" parent="1">
          <mxGeometry x="70" y="200" width="200" height="112" as="geometry" />
        </mxCell>
        <mxCell id="lSfo4M3xzaESeiaQ9F7--14" value="- prototipA(concretePrototipA):" style="text;strokeColor=none;fillColor=none;align=left;verticalAlign=top;spacingLeft=4;spacingRight=4;overflow=hidden;rotatable=0;points=[[0,0.5],[1,0.5]];portConstraint=eastwest;whiteSpace=wrap;html=1;" vertex="1" parent="lSfo4M3xzaESeiaQ9F7--13">
          <mxGeometry y="26" width="200" height="26" as="geometry" />
        </mxCell>
        <mxCell id="lSfo4M3xzaESeiaQ9F7--18" value="-prototipB(cocretePrototipB):" style="text;strokeColor=none;fillColor=none;align=left;verticalAlign=top;spacingLeft=4;spacingRight=4;overflow=hidden;rotatable=0;points=[[0,0.5],[1,0.5]];portConstraint=eastwest;whiteSpace=wrap;html=1;" vertex="1" parent="lSfo4M3xzaESeiaQ9F7--13">
          <mxGeometry y="52" width="200" height="26" as="geometry" />
        </mxCell>
        <mxCell id="lSfo4M3xzaESeiaQ9F7--15" value="" style="line;strokeWidth=1;fillColor=none;align=left;verticalAlign=middle;spacingTop=-1;spacingLeft=3;spacingRight=3;rotatable=0;labelPosition=right;points=[];portConstraint=eastwest;strokeColor=inherit;" vertex="1" parent="lSfo4M3xzaESeiaQ9F7--13">
          <mxGeometry y="78" width="200" height="8" as="geometry" />
        </mxCell>
        <mxCell id="lSfo4M3xzaESeiaQ9F7--16" value="+ someOperation(операция):&amp;nbsp;" style="text;strokeColor=none;fillColor=none;align=left;verticalAlign=top;spacingLeft=4;spacingRight=4;overflow=hidden;rotatable=0;points=[[0,0.5],[1,0.5]];portConstraint=eastwest;whiteSpace=wrap;html=1;" vertex="1" parent="lSfo4M3xzaESeiaQ9F7--13">
          <mxGeometry y="86" width="200" height="26" as="geometry" />
        </mxCell>
        <mxCell id="lSfo4M3xzaESeiaQ9F7--23" value="" style="endArrow=none;dashed=1;html=1;rounded=0;exitX=0.431;exitY=0.007;exitDx=0;exitDy=0;exitPerimeter=0;" edge="1" parent="1" source="lSfo4M3xzaESeiaQ9F7--5">
          <mxGeometry width="50" height="50" relative="1" as="geometry">
            <mxPoint x="260" y="510" as="sourcePoint" />
            <mxPoint x="260" y="400" as="targetPoint" />
          </mxGeometry>
        </mxCell>
        <mxCell id="lSfo4M3xzaESeiaQ9F7--24" value="" style="endArrow=none;dashed=1;html=1;rounded=0;exitX=0.431;exitY=0.007;exitDx=0;exitDy=0;exitPerimeter=0;" edge="1" parent="1">
          <mxGeometry width="50" height="50" relative="1" as="geometry">
            <mxPoint x="579.5" y="520" as="sourcePoint" />
            <mxPoint x="580.5" y="403" as="targetPoint" />
          </mxGeometry>
        </mxCell>
        <mxCell id="lSfo4M3xzaESeiaQ9F7--25" value="" style="endArrow=none;dashed=1;html=1;rounded=0;flowAnimation=0;" edge="1" parent="1">
          <mxGeometry width="50" height="50" relative="1" as="geometry">
            <mxPoint x="260" y="400" as="sourcePoint" />
            <mxPoint x="580" y="400" as="targetPoint" />
          </mxGeometry>
        </mxCell>
        <mxCell id="lSfo4M3xzaESeiaQ9F7--26" value="" style="endArrow=block;dashed=1;html=1;rounded=0;startArrow=none;startFill=0;endFill=0;flowAnimation=0;shadow=0;" edge="1" parent="1" target="lSfo4M3xzaESeiaQ9F7--4">
          <mxGeometry width="50" height="50" relative="1" as="geometry">
            <mxPoint x="441" y="400" as="sourcePoint" />
            <mxPoint x="440.5" y="326" as="targetPoint" />
          </mxGeometry>
        </mxCell>
        <mxCell id="lSfo4M3xzaESeiaQ9F7--27" style="edgeStyle=orthogonalEdgeStyle;rounded=0;orthogonalLoop=1;jettySize=auto;html=1;entryX=0;entryY=0;entryDx=0;entryDy=0;exitX=1;exitY=0;exitDx=0;exitDy=0;" edge="1" parent="1" source="lSfo4M3xzaESeiaQ9F7--13" target="lSfo4M3xzaESeiaQ9F7--1">
          <mxGeometry relative="1" as="geometry">
            <Array as="points">
              <mxPoint x="270" y="240" />
            </Array>
          </mxGeometry>
        </mxCell>
      </root>
    </mxGraphModel>
  </diagram>
</mxfile>
